<svg width="25px" height="25px" viewBox="0 0 25 25" version="1.1" xmlns="http://www.w3.org/2000/svg" xmlns:xlink="http://www.w3.org/1999/xlink">
    <g id="Error" stroke="none" stroke-width="1" fill="none" fill-rule="evenodd">
        <path d="M18.7011719,16.1783854 C18.7011719,15.9016927 18.5872396,15.641276 18.3919271,15.4459635 L15.4459635,12.5 L18.3919271,9.55403646 C18.5872396,9.35872396 18.7011719,9.09830729 18.7011719,8.82161458 C18.7011719,8.54492188 18.5872396,8.26822917 18.3919271,8.07291667 L16.9270833,6.60807292 C16.7317708,6.41276042 16.4550781,6.29882812 16.1783854,6.29882812 C15.9016927,6.29882812 15.641276,6.41276042 15.4459635,6.60807292 L12.5,9.55403646 L9.55403646,6.60807292 C9.35872396,6.41276042 9.09830729,6.29882812 8.82161458,6.29882812 C8.54492188,6.29882812 8.26822917,6.41276042 8.07291667,6.60807292 L6.60807292,8.07291667 C6.41276042,8.26822917 6.29882812,8.54492188 6.29882812,8.82161458 C6.29882812,9.09830729 6.41276042,9.35872396 6.60807292,9.55403646 L9.55403646,12.5 L6.60807292,15.4459635 C6.41276042,15.641276 6.29882812,15.9016927 6.29882812,16.1783854 C6.29882812,16.4550781 6.41276042,16.7317708 6.60807292,16.9270833 L8.07291667,18.3919271 C8.26822917,18.5872396 8.54492188,18.7011719 8.82161458,18.7011719 C9.09830729,18.7011719 9.35872396,18.5872396 9.55403646,18.3919271 L12.5,15.4459635 L15.4459635,18.3919271 C15.641276,18.5872396 15.9016927,18.7011719 16.1783854,18.7011719 C16.4550781,18.7011719 16.7317708,18.5872396 16.9270833,18.3919271 L18.3919271,16.9270833 C18.5872396,16.7317708 18.7011719,16.4550781 18.7011719,16.1783854 Z M25,12.5 C25,19.4010417 19.4010417,25 12.5,25 C5.59895833,25 0,19.4010417 0,12.5 C0,5.59895833 5.59895833,0 12.5,0 C19.4010417,0 25,5.59895833 25,12.5 Z" fill="#D0021B"></path>
    </g>
</svg>