<svg width="32px" height="32px" viewBox="0 0 32 32" version="1.1" xmlns="http://www.w3.org/2000/svg" xmlns:xlink="http://www.w3.org/1999/xlink">
    <g id="Artboard" stroke="none" stroke-width="1" fill="none" fill-rule="evenodd">
        <g id="Group" transform="translate(3.000000, 8.000000)" fill="#0071BC" fill-rule="nonzero">
            <path d="M0.813910529,8 C0.365030921,8 0,8.44569077 0,8.9933965 L0,20.0066035 C0,20.5543092 0.365271866,21 0.813910529,21 L5.18608947,21 C5.63496908,21 6,20.5543092 6,20.0066035 L6,8.9933965 C6,8.44569077 5.63472813,8 5.18608947,8 L0.813910529,8 Z" id="Shape"></path>
            <path d="M10.8139105,21 L15.1860895,21 C15.6349691,21 16,20.5173512 16,19.924228 L16,1.07545368 C16,0.482648838 15.6347281,0 15.1860895,0 L10.8139105,0 C10.3650309,0 10,0.482648838 10,1.07545368 L10,19.924228 C10,20.5173512 10.3650309,21 10.8139105,21 Z" id="Shape"></path>
            <path d="M20.8139106,21 L25.1860895,21 C25.6349691,21 26,20.6794324 26,20.2854894 L26,3.7145106 C26,3.32056764 25.6347281,3 25.1860895,3 L20.8139106,3 C20.365031,3 20.0000001,3.32056764 20.0000001,3.7145106 L20.0000001,20.2852779 C19.9997592,20.6794324 20.365031,21 20.8139106,21 Z" id="Shape"></path>
        </g>
    </g>
</svg>