<?xml version="1.0" encoding="UTF-8"?>
<svg width="40px" height="40px" viewBox="0 0 40 40" version="1.1" xmlns="http://www.w3.org/2000/svg" xmlns:xlink="http://www.w3.org/1999/xlink">
    <!-- Generator: Sketch 49 (51002) - http://www.bohemiancoding.com/sketch -->
    <title>DashboardCard_Row_Status</title>
    <desc>Created with Sketch.</desc>
    <defs></defs>
    <g id="DashboardCard_Row_Status" stroke="none" stroke-width="1" fill="none" fill-rule="evenodd">
        <circle id="Oval" fill="#FFFFFF" cx="20" cy="20" r="20"></circle>
        <path d="M9.966,2.68033333 C13.037,0.893666667 16.3813333,0 20,0 C23.6183333,0 26.9623333,0.893666667 30.0336667,2.68033333 C33.1036667,4.467 35.5333333,6.89566667 37.3196667,9.96666667 C39.106,13.0373333 40,16.3816667 40,20 C40,23.6183333 39.106,26.963 37.3196667,30.0333333 C35.5333333,33.1046667 33.1036667,35.5333333 30.0336667,37.3193333 C26.9623333,39.1066667 23.6183333,40 20,40 C16.3813333,40 13.037,39.1066667 9.966,37.3193333 C6.89533333,35.5333333 4.46666667,33.1046667 2.68033333,30.0333333 C0.893333333,26.963 0,23.6183333 0,20 C0,16.3816667 0.893333333,13.0373333 2.68033333,9.96666667 C4.46666667,6.89566667 6.89533333,4.467 9.966,2.68033333 C9.966,2.68033333 6.89533333,4.467 9.966,2.68033333 L9.966,2.68033333 L9.966,2.68033333 Z M18.1873751,19.5791684 L14.7110421,16.177071 L8.7804878,21.9806489 L18.1873751,31.2195122 L32.195122,17.5112269 L26.2313338,11.7073171 L18.1873751,19.5791684 L18.1873751,19.5791684 Z" id="Imported-Layers" fill="#58B957"></path>
    </g>
</svg>