<?xml version="1.0" encoding="UTF-8"?>
<svg width="50px" height="50px" viewBox="0 0 50 50" version="1.1" xmlns="http://www.w3.org/2000/svg" xmlns:xlink="http://www.w3.org/1999/xlink">
    <!-- Generator: Sketch 49 (51002) - http://www.bohemiancoding.com/sketch -->
    <title>HQR_NG_CardIcon_Folder</title>
    <desc>Created with Sketch.</desc>
    <defs></defs>
    <g id="HQR_NG_CardIcon_Folder" stroke="none" stroke-width="1" fill="none" fill-rule="evenodd">
        <path d="M49.1030343,10.1799902 L28.5495165,10.1799902 L25.801934,4.50773364 C25.651884,4.1965972 25.3401134,4 25.0016672,4 L3.91130377,4 C3.57285762,4 3.25941981,4.1965972 3.11103701,4.50773364 L0.098366122,10.7014002 C0.0650216739,10.7680723 0.101700567,10.8347444 0.081693898,10.9014165 C0.0650216739,10.9749267 0,11.0210843 0,11.1014328 L0,45.0819766 C0,45.5862911 0.403467823,46 0.898632878,46 L49.1047016,46 C49.5965322,46 50,45.5862911 50,45.0819766 L50,11.1014328 C49.9983328,10.5954087 49.594865,10.1799902 49.1030343,10.1799902 L49.1030343,10.1799902 Z M4.18439912,6 L24.8293826,6 L27,10 L2,10 L4.18439912,6 L4.18439912,6 Z M48,44 L2,44 L2,12 L27.85703,12 C27.9016452,12.0102122 27.9379984,12.0357428 27.9826137,12.0357428 C28.0305338,12.0357428 28.0801063,12.0085102 28.1280264,12 L47.9983476,12 L47.9983476,44 L48,44 Z" id="Folder-2" fill="#9F9F9F"></path>
    </g>
</svg>