<?xml version="1.0" encoding="UTF-8"?>
<svg width="40px" height="40px" viewBox="0 0 40 40" version="1.1" xmlns="http://www.w3.org/2000/svg" xmlns:xlink="http://www.w3.org/1999/xlink">
    <!-- Generator: Sketch 49 (51002) - http://www.bohemiancoding.com/sketch -->
    <title>Status Copy</title>
    <desc>Created with Sketch.</desc>
    <defs>
        <path d="M20,0 C23.6183333,0 26.9623333,0.893666667 30.0336667,2.68033333 C33.1036667,4.467 35.5333333,6.89566667 37.3196667,9.96666667 C39.106,13.0373333 40,16.3816667 40,20 C40,23.6183333 39.106,26.963 37.3196667,30.0333333 C35.5333333,33.1046667 33.1036667,35.5333333 30.0336667,37.3193333 C26.9623333,39.1066667 23.6183333,40 20,40 C16.3813333,40 13.037,39.1066667 9.966,37.3193333 C6.89533333,35.5333333 4.46666667,33.1046667 2.68033333,30.0333333 C0.893333333,26.963 0,23.6183333 0,20 C0,16.3816667 0.893333333,13.0373333 2.68033333,9.96666667 C4.46666667,6.89566667 6.89533333,4.467 9.966,2.68033333 C13.037,0.893666667 16.3813333,0 20,0 Z" id="path-1"></path>
    </defs>
    <g id="Status-Copy" stroke="none" stroke-width="1" fill="none" fill-rule="evenodd">
        <g id="Imported-Layers">
            <use fill="#FFFFFF" fill-rule="evenodd" xlink:href="#path-1"></use>
            <path stroke="#979797" stroke-width="1" d="M20,0.5 C16.4696901,0.5 13.2120952,1.37026119 10.217457,3.11250157 C7.2214798,4.85571018 4.85518171,7.22217066 3.11248118,10.2181587 C1.37019529,13.2119915 0.5,16.4694812 0.5,20 C0.5,23.5306408 1.37025542,26.7884368 3.11254568,29.7819522 C4.85524072,32.778256 7.22155312,35.1446496 10.2175067,36.887194 C13.2116068,38.6297713 16.46908,39.5 20,39.5 C23.5305052,39.5 26.787666,38.6298114 29.782239,36.887148 C32.7782384,35.1441985 35.1452245,32.7774561 36.8874899,29.781891 C38.6295369,26.7876766 39.5,23.529711 39.5,20 C39.5,16.4704111 38.6295971,13.212752 36.8874662,10.2180682 C35.1452837,7.22297075 32.7783122,4.85616166 29.7822505,3.1125253 C26.7871774,1.37022103 23.5298951,0.5 20,0.5 Z"></path>
        </g>
    </g>
</svg>