<?xml version="1.0" encoding="UTF-8"?>
<svg width="50px" height="50px" viewBox="0 0 50 50" version="1.1" xmlns="http://www.w3.org/2000/svg" xmlns:xlink="http://www.w3.org/1999/xlink">
    <!-- Generator: Sketch 49 (51002) - http://www.bohemiancoding.com/sketch -->
    <title>File</title>
    <desc>Created with Sketch.</desc>
    <defs></defs>
    <g id="File" stroke="none" stroke-width="1" fill="none" fill-rule="evenodd">
        <path d="M48,0 L48,50 L3,50 L3,0 L48,0 Z M6,47 L45,47 L45,3 L6,3 L6,3 L6,47 L6,47 Z M11.1818182,16.6666667 L15.2727273,16.6666667 L15.2727273,12.5 L11.1818182,12.5 L11.1818182,12.5 L11.1818182,16.6666667 L11.1818182,16.6666667 Z M11.1818182,25 L15.2727273,25 L15.2727273,20.8333333 L11.1818182,20.8333333 L11.1818182,20.8333333 L11.1818182,25 L11.1818182,25 Z M11.1818182,33.3333333 L15.2727273,33.3333333 L15.2727273,29.1666667 L11.1818182,29.1666667 L11.1818182,29.1666667 L11.1818182,33.3333333 L11.1818182,33.3333333 Z M11.1818182,41.6666667 L15.2727273,41.6666667 L15.2727273,37.5 L11.1818182,37.5 L11.1818182,37.5 L11.1818182,41.6666667 L11.1818182,41.6666667 Z M19.3636364,16.6666667 L39.8181818,16.6666667 L39.8181818,12.5 L19.3636364,12.5 L19.3636364,12.5 L19.3636364,16.6666667 L19.3636364,16.6666667 Z M19.3636364,25 L39.8181818,25 L39.8181818,20.8333333 L19.3636364,20.8333333 L19.3636364,20.8333333 L19.3636364,25 L19.3636364,25 Z M19.3636364,33.3333333 L39.8181818,33.3333333 L39.8181818,29.1666667 L19.3636364,29.1666667 L19.3636364,29.1666667 L19.3636364,33.3333333 L19.3636364,33.3333333 Z M19.3636364,37.5 L39.8181818,37.5 L39.8181818,41.6666667 L19.3636364,41.6666667 L19.3636364,41.6666667 L19.3636364,37.5 L19.3636364,37.5 Z" id="Fill-38" fill="#9F9F9F"></path>
    </g>
</svg>