<?xml version="1.0" encoding="UTF-8"?>
<svg width="50px" height="50px" viewBox="0 0 50 50" version="1.1" xmlns="http://www.w3.org/2000/svg" xmlns:xlink="http://www.w3.org/1999/xlink">
    <!-- Generator: Sketch 49 (51002) - http://www.bohemiancoding.com/sketch -->
    <title>HQR_NG_CardIcon_Pencil</title>
    <desc>Created with Sketch.</desc>
    <defs></defs>
    <g id="HQR_NG_CardIcon_Pencil" stroke="none" stroke-width="1" fill="none" fill-rule="evenodd">
        <path d="M49.9335745,17.5716709 C48.5971571,13.9592835 46.6241624,10.6953899 44.0640138,7.86761145 C41.5196808,5.05974692 38.4732029,2.7835844 35.0056349,1.10483986 C34.616176,0.91764889 34.1476392,0.983364868 33.8273735,1.28406525 L11.5550696,21.7735107 L8.98305935,24.139286 C8.84467294,24.2527954 8.72407907,24.4001585 8.65093197,24.5833667 C8.63907028,24.6112462 8.62720858,24.6450999 8.61534689,24.6769622 L2.62716932,40.3512187 L0.0709746638,47.0442915 C-0.0753195391,47.4246476 0.00968925449,47.8488144 0.278554276,48.1534976 C0.48415694,48.378525 0.768837551,48.5 1.06142596,48.5 C1.15829644,48.5 1.25912083,48.4880516 1.35401436,48.4581807 L8.20414156,46.5026325 L24.3123195,41.8985313 C24.4131439,41.8706518 24.5139682,41.8248497 24.6049079,41.7670993 C24.6543316,41.7312542 24.7057323,41.6934178 24.7512021,41.6535899 L27.3805438,39.2340471 L49.6488939,18.7446016 C49.9750904,18.4439012 50.0838226,17.9799065 49.9335745,17.5716709 L49.9335745,17.5716709 Z M3.90169903,42.25 C3.94417476,42.2791991 3.99676375,42.2937987 4.03923948,42.3188265 C4.50444984,42.6212458 4.93932039,42.9549499 5.29935275,43.3658231 C5.65938511,43.772525 5.94255663,44.2459677 6.19134304,44.7506952 C6.21966019,44.7944939 6.23179612,44.8528921 6.25,44.9008621 L2.5,46 L3.90169903,42.25 L3.90169903,42.25 Z M23.3550377,39.2536692 L8.5797513,43.5 C8.53862724,43.406783 8.46421228,43.3373661 8.41917164,43.2481158 C8.07842945,42.49643 7.66914717,41.7923443 7.13453442,41.195359 C6.59600509,40.5983737 5.93802017,40.1263388 5.22911975,39.7118207 C5.14099677,39.6622372 5.08812298,39.5809203 5,39.5333201 L10.5145403,25.0232051 L12.1673357,23.5 L13.5028885,24.9795716 L25,37.7324474 L23.3550377,39.2536692 L23.3550377,39.2536692 Z M26.6485655,37.25 L23.2930492,33.5113475 L40.9168902,17.1389729 C41.1432153,16.9247063 41.25933,16.634345 41.25933,16.3379761 C41.25933,16.0836597 41.170768,15.8213332 40.9818357,15.6150765 C40.5901948,15.1765308 39.9171234,15.1504984 39.4861216,15.5489943 L21.8622806,31.9213688 L21.1734649,31.1504094 L18.5323488,28.2007387 L36.1483177,11.8283642 C36.3785789,11.6140975 36.4946936,11.3237362 36.4946936,11.0273674 C36.4946936,10.7730509 36.4021955,10.5107245 36.2171993,10.3044678 C35.8216223,9.86592204 35.1485509,9.83988964 34.7175491,10.2383855 L17.0976442,26.614765 L13.75,22.8801175 L34.5994664,3.5 C37.5397253,5.03390886 40.1414806,7.04441082 42.3338824,9.49546102 C44.5400606,11.9525187 46.269972,14.7680224 47.5,17.8738875 L26.6485655,37.25 L26.6485655,37.25 Z" id="Pencil-2" fill="#9F9F9F"></path>
    </g>
</svg>