<svg width="auto" height="32px" viewBox="0 0 32 32" version="1.1" xmlns="http://www.w3.org/2000/svg" xmlns:xlink="http://www.w3.org/1999/xlink">
   <!-- Generator: Sketch 48.2 (47327) - http://www.bohemiancoding.com/sketch -->
   <g id="Symbols" stroke="none" stroke-width="1" fill="none" fill-rule="evenodd">
       <g id="Elipses">
           <g id="Group-2">
               <rect id="Checkbox" fill="#FDB81E" x="0" y="0" width="32" height="32" rx="16"></rect>
               <path d="M22,24.5 L22,25.5 C22,25.7761424 21.6642136,26 21.25,26 L10.75,26 C10.3357864,26 10,25.7761424 10,25.5 L10,24.5 C10,24.2238576 10.3357864,24 10.75,24 L21.25,24 C21.6642136,24 22,24.2238576 22,24.5 Z" id="Rectangle-9-Copy-3" fill="#FFFFFF"></path>
               <path d="M20,21.75 L20,23.25 C20,23.6642136 19.7761424,24 19.5,24 L12.5,24 C12.2238576,24 12,23.6642136 12,23.25 L12,21.75 C12,21.3357864 12.2238576,21 12.5,21 L19.5,21 C19.7761424,21 20,21.3357864 20,21.75 Z" id="Rectangle-9-Copy-3" fill="#FFFFFF"></path>
               <path d="M22,6.5 L22,7.5 C22,7.77614237 21.6642136,8 21.25,8 L10.75,8 C10.3357864,8 10,7.77614237 10,7.5 L10,6.5 C10,6.22385763 10.3357864,6 10.75,6 L21.25,6 C21.6642136,6 22,6.22385763 22,6.5 Z" id="Rectangle-9-Copy-2" fill="#FFFFFF"></path>
           </g>
           <polyline id="Path-2" stroke="#FFFFFF" stroke-width="2" transform="translate(16.000000, 16.000000) scale(-1, 1) translate(-16.000000, -16.000000) " points="12 24 12 21 20 11 20 8"></polyline>
           <polyline id="Path-2" stroke="#FFFFFF" stroke-width="2" points="12 24 12 21 20 11 20 8"></polyline>
       </g>
   </g>
</svg>